PathFileType	4	(X/Y/Z)	C:/Users/Rosti/Documents/GitHub/TechForParalysis/Code/Model/04122019 - Marker Volunteer01/Rosti Data/New Session 103.trc	
DataRate	CameraRate	NumFrames	NumMarkers	Units	OrigDataRate	OrigDataStartFrame	OrigNumFrames	
100.00	100.00	10	14	m	100.00	388	620	
Frame#	Time	C7			PX			T8			IJ			SC			AC			AI			TS			AA			GH			LE			ME			US			RS			
		X1	Y1	Z1	X2	Y2	Z2	X3	Y3	Z3	X4	Y4	Z4	X5	Y5	Z5	X6	Y6	Z6	X7	Y7	Z7	X8	Y8	Z8	X9	Y9	Z9	X10	Y10	Z10	X11	Y11	Z11	X12	Y12	Z12	X13	Y13	Z13	X14	Y14	Z14	

388	3.87	0.0269815	0.09945	0.164835	-0.0025996	-0.14254	-0.06901	0.02170273	-0.11555	0.230224	0	0	0	0.02508938	0.00753	0.00433	0.1718138	0.03869	0.070526	0.1088219	0.01801	0.199969	0.1062088	-0.09833	0.230139	0.2249398	-0.0084	0.135399	0.2336878	0.00736	0.094909	0.3111788	-0.2264	-0.062782	0.2274498	-0.26759	-0.085381	0.2823678	-0.13608	-0.328194	0.3290528	-0.09009	-0.287738
389	3.88	0.027095	0.09947	0.164867	-0.0025163	-0.14253	-0.068992	0.02181005	-0.11552	0.230347	0	0	0	0.02526604	0.00755	0.004335	0.1719281	0.03873	0.070418	0.1089356	0.01801	0.199873	0.1063188	-0.09828	0.230135	0.2250241	-0.00842	0.135261	0.2337971	0.00734	0.094769	0.3111981	-0.2266	-0.062918	0.2277821	-0.26789	-0.085194	0.2854331	-0.14531	-0.332198	0.3323251	-0.09828	-0.293066
390	3.89	0.0272056	0.09949	0.164892	-0.0024802	-0.14252	-0.068989	0.02191857	-0.11548	0.230473	0	0	0	0.02539189	0.00759	0.004316	0.1720487	0.03879	0.070263	0.1090581	0.01803	0.199764	0.1064273	-0.09823	0.230129	0.2251247	-0.00843	0.135086	0.2339017	0.00732	0.094591	0.3113377	-0.22686	-0.063034	0.2280497	-0.26826	-0.08488	0.2881787	-0.15458	-0.335734	0.3354887	-0.10672	-0.298011
391	3.9	0.0273139	0.09952	0.164896	-0.0024829	-0.14251	-0.068996	0.02202658	-0.11544	0.230596	0	0	0	0.02544781	0.00764	0.004289	0.1721498	0.03882	0.070072	0.1091939	0.01807	0.199648	0.1065399	-0.09817	0.230112	0.2252468	-0.00839	0.134882	0.2339898	0.00732	0.094375	0.3115488	-0.2272	-0.063161	0.2282088	-0.26867	-0.084451	0.2907268	-0.16392	-0.338841	0.3385098	-0.11536	-0.302572
392	3.91	0.0274162	0.09954	0.164884	-0.0025041	-0.14252	-0.068992	0.0221334	-0.11541	0.230713	0	0	0	0.02545098	0.00766	0.00428	0.172209	0.03882	0.069874	0.1093427	0.01814	0.199538	0.1066611	-0.09811	0.230086	0.225388	-0.00833	0.134668	0.23405	0.00735	0.094139	0.311717	-0.22766	-0.063297	0.228221	-0.26913	-0.083952	0.293254	-0.17344	-0.341572	0.341391	-0.12416	-0.306725
393	3.92	0.0275059	0.09957	0.164866	-0.0025255	-0.14253	-0.068964	0.02223897	-0.11537	0.230818	0	0	0	0.02543192	0.00766	0.004294	0.1722228	0.03882	0.069695	0.1094969	0.01823	0.199439	0.1067921	-0.09805	0.230051	0.2255358	-0.00823	0.13446	0.2340628	0.0074	0.093902	0.3117388	-0.22826	-0.063416	0.2280648	-0.2696	-0.083454	0.2959008	-0.18315	-0.343958	0.3441538	-0.13302	-0.310444
394	3.93	0.027578	0.0996	0.164858	-0.0025383	-0.14254	-0.068911	0.02234458	-0.11532	0.230908	0	0	0	0.02541481	0.00766	0.004326	0.1722021	0.03884	0.06956	0.109644	0.01832	0.199354	0.1069307	-0.09798	0.230012	0.2256711	-0.00813	0.13427	0.2340201	0.00745	0.093677	0.3115951	-0.22897	-0.063486	0.2277471	-0.27007	-0.083021	0.2986921	-0.19303	-0.34598	0.3468241	-0.14193	-0.313732
395	3.94	0.0276331	0.09962	0.164868	-0.0025486	-0.14256	-0.068846	0.02245226	-0.11529	0.230981	0	0	0	0.02541246	0.00765	0.004356	0.1721573	0.03886	0.069467	0.1097689	0.0184	0.199281	0.1070726	-0.09793	0.229968	0.2257733	-0.00807	0.134098	0.2339463	0.00747	0.09348	0.3112893	-0.22976	-0.063497	0.2272953	-0.27054	-0.082679	0.3015033	-0.20301	-0.347604	0.3494203	-0.15092	-0.316621
396	3.95	0.027681	0.09965	0.164889	-0.0025704	-0.14258	-0.068788	0.02256497	-0.11525	0.231036	0	0	0	0.02542022	0.00767	0.00437	0.172104	0.03884	0.069394	0.1098652	0.01846	0.199212	0.1072141	-0.09787	0.229915	0.225832	-0.00805	0.133936	0.233887	0.00745	0.09331	0.310819	-0.23057	-0.063459	0.226763	-0.27102	-0.0824	0.304141	-0.21297	-0.348811	0.351947	-0.16003	-0.319138
397	3.96	0.0277357	0.09967	0.164904	-0.0026108	-0.14258	-0.068746	0.02268465	-0.1152	0.231073	0	0	0	0.02541663	0.00771	0.004362	0.1720726	0.03879	0.069297	0.109939	0.01852	0.199132	0.1073522	-0.09782	0.229846	0.2258526	-0.00808	0.133765	0.2338696	0.00738	0.093137	0.3102796	-0.23135	-0.063373	0.2262046	-0.27151	-0.082114	0.3064576	-0.22283	-0.349591	0.3543876	-0.16923	-0.32129
